<svg width="88" height="26" xmlns="http://www.w3.org/2000/svg" fill="none">

 <g>
  <title>Layer 1</title>
  <g id="svg_2" fill="#2f80ed">
   <path id="svg_3" d="m26.1608,11.2572l-5.1296,-8.66671c-0.513,-0.94202 -1.5389,-1.50724 -2.6289,-1.50724l-10.25913,0c-1.09003,0 -2.11594,0.56522 -2.62889,1.50724l-5.12956,8.66671c-0.51296,0.942 -0.51296,2.0724 0,3.0144l5.12956,8.6667c0.51295,0.9421 1.53886,1.5073 2.62889,1.5073l10.25913,0c1.09,0 2.1159,-0.5652 2.6289,-1.5073l5.1296,-8.6667c0.5128,-0.942 0.5128,-2.0724 0,-3.0144zm-1.9877,1.884l-5.1296,8.6667c-0.1283,0.2512 -0.3847,0.3768 -0.7053,0.3768l-10.19503,0c-0.25647,0 -0.57707,-0.1256 -0.70531,-0.3768l-5.12956,-8.6667c-0.12824,-0.2511 -0.12824,-0.5652 0,-0.8164l5.12956,-8.66667c0.12824,-0.2512 0.38471,-0.37681 0.70531,-0.37681l10.25913,0c0.2565,0 0.577,0.12561 0.7053,0.37681l5.1295,8.66667c0.1283,0.314 0.1283,0.5653 -0.064,0.8164z"/>
   <path id="svg_4" stroke-width="0.5" stroke="#2f80ed" d="m17.9394,7.3125l-2.0546,0c-1.7,0 -3.0921,1.36349 -3.0921,3.0286l0,2.1888l-2.2347,0c-1.70008,0 -3.09218,1.3635 -3.09218,3.0286l0,2.0124c0,0.87 0.73259,1.5876 1.62091,1.5876l2.05467,0c1.7,0 3.0921,-1.3634 3.0921,-3.0285l0,-2.1889l2.2348,0c1.7,0 3.0921,-1.3635 3.0921,-3.0286l0,-2.0124c0,-0.89824 -0.736,-1.5876 -1.621,-1.5876zm-5.1467,8.7926c0,0.8939 -0.7387,1.6174 -1.6513,1.6174l-2.05467,0c-0.10095,0 -0.18007,-0.0776 -0.18007,-0.1764l0,-2.0125c0,-0.8939 0.73864,-1.6173 1.65134,-1.6173l2.2347,0l0,2.1888zm5.3268,-5.2174c0,0.8939 -0.7386,1.6173 -1.6512,1.6173l-2.2348,0l0,-2.1888c0,-0.89384 0.7386,-1.61731 1.6513,-1.61731l2.0546,0c0.101,0 0.1801,0.0775 0.1801,0.17637l0,2.01244z"/>
  </g>
  <path id="svg_9" d="m65,13.61538" opacity="NaN" stroke="#000" fill="#fff"/>
  <text font-weight="bold" xml:space="preserve" text-anchor="start" font-family="Noto Sans JP" font-size="18" stroke-width="0" id="svg_20" y="19.15385" x="30.23077" stroke="null" fill="#000000">Admin</text>
 </g>
</svg>