<svg width="708" height="555.86743" xmlns="http://www.w3.org/2000/svg">

 <g>
  <title>Layer 1</title>
  <g id="svg_1">
   <path id="svg_2" fill="#f0f0f0" d="m487.46523,506.4485a211.72219,211.72219 0 0 1 -46.19649,37.27045c-0.39154,0.24069 -0.7897,0.4667 -1.18925,0.70031l-27.639,-24.46263c0.29035,-0.26957 0.61188,-0.57235 0.95806,-0.90494c20.59391,-19.55497 122.83077,-156.27974 129.64345,-189.57446c-0.47014,2.77384 6.14723,111.55068 -55.57677,176.97127z"/>
   <path id="svg_3" fill="#f0f0f0" d="m446.6017,548.43902c-0.52265,0.12466 -1.0544,0.24137 -1.58764,0.34772l-20.7355,-18.35251c0.40524,-0.14119 0.87883,-0.30927 1.42046,-0.49568c8.89662,-3.15026 35.39436,-12.66026 61.76413,-23.49189c28.33447,-11.64369 56.53311,-24.79986 62.59765,-33.227c-1.30094,1.95806 -41.37434,61.3363 -103.4591,75.21936z"/>
   <path id="svg_4" fill="#3f3d56" d="m487.08181,144.58011l-2.95289,0l0,-80.89361a46.819,46.819 0 0 0 -46.819,-46.81906l-171.38413,0a46.819,46.819 0 0 0 -46.81911,46.81891l0,443.7888a46.819,46.819 0 0 0 46.819,46.81906l171.38404,0a46.819,46.819 0 0 0 46.81915,-46.81888l0,-305.31376l2.95294,0l0,-57.58146z"/>
   <path id="svg_5" fill="#fff" d="m474.1627,64.00811l0,443.14277a34.95659,34.95659 0 0 1 -34.9693,34.95674l-172.20914,0a34.95435,34.95435 0 0 1 -34.957,-34.95674l0,-443.14277a34.95435,34.95435 0 0 1 34.957,-34.95674l20.89839,0a16.61888,16.61888 0 0 0 15.38341,22.87963l98.18146,0a16.60126,16.60126 0 0 0 15.384,-22.87963l22.36188,0a34.95659,34.95659 0 0 1 34.9693,34.95674z"/>
   <path id="svg_6" fill="#f0f0f0" d="m420.59459,294.28882l-151.3667,0a10.0113,10.0113 0 0 1 -10,-10l0,-4.97754a10.0113,10.0113 0 0 1 10,-10l151.3667,0a10.0113,10.0113 0 0 1 10,10l0,4.97754a10.0113,10.0113 0 0 1 -10,10z"/>
   <path id="svg_7" fill="#f0f0f0" d="m420.59459,337.19605l-151.3667,0a10.0113,10.0113 0 0 1 -10,-10l0,-4.97754a10.0113,10.0113 0 0 1 10,-10l151.3667,0a10.0113,10.0113 0 0 1 10,10l0,4.97754a10.0113,10.0113 0 0 1 -10,10z"/>
   <path id="svg_8" fill="#3f3d56" d="m428.16637,284.69263l-151.3667,0a10.512,10.512 0 0 1 -10.5,-10.5l0,-4.97754a10.512,10.512 0 0 1 10.5,-10.5l151.3667,0a10.512,10.512 0 0 1 10.5,10.5l0,4.97754a10.512,10.512 0 0 1 -10.5,10.5zm-151.3667,-23.97754a8.50951,8.50951 0 0 0 -8.5,8.5l0,4.97754a8.50951,8.50951 0 0 0 8.5,8.5l151.3667,0a8.50951,8.50951 0 0 0 8.5,-8.5l0,-4.97754a8.50951,8.50951 0 0 0 -8.5,-8.5l-151.3667,0z"/>
   <path id="svg_9" fill="#3f3d56" d="m428.16637,327.59986l-151.3667,0a10.512,10.512 0 0 1 -10.5,-10.5l0,-4.97754a10.512,10.512 0 0 1 10.5,-10.5l151.3667,0a10.512,10.512 0 0 1 10.5,10.5l0,4.97754a10.512,10.512 0 0 1 -10.5,10.5zm-151.3667,-23.97754a8.50951,8.50951 0 0 0 -8.5,8.5l0,4.97754a8.50951,8.50951 0 0 0 8.5,8.5l151.3667,0a8.50951,8.50951 0 0 0 8.5,-8.5l0,-4.97754a8.50951,8.50951 0 0 0 -8.5,-8.5l-151.3667,0z"/>
   <path id="svg_10" fill="#f0f0f0" d="m474.1627,64.00811l0,96.38971a103.53895,103.53895 0 0 1 -129.88243,-100.07465q0,-4.24023 0.34076,-8.39217l56.82649,0a16.60126,16.60126 0 0 0 15.384,-22.87963l22.36188,0a34.95659,34.95659 0 0 1 34.9693,34.95674z"/>
   <path id="svg_11" fill="#4a6cf7" d="m319.04076,536.08797c0,2.03176 -0.0758,4.03834 -0.23971,6.01965l-51.81679,0a34.95435,34.95435 0 0 1 -34.957,-34.95674l0,-47.3998a77.07339,77.07339 0 0 1 87.01347,76.33689l0.00003,0z"/>
  </g>
  <path id="svg_19" fill="#2f2e41" d="m180.32143,230.55925l-10.77161,0l10.77161,0z"/>
  <path id="svg_24" fill="#2f2e41"/>
  <path id="svg_25" fill="#f0f0f0" d="m85.35036,252.26346l33.54892,25.65917l-25.65917,33.54892l-33.54892,-25.65917l25.65917,-33.54892z"/>
  <path id="svg_26" fill="#f0f0f0" d="m143.29528,56.86744a33.94883,33.94883 0 0 1 27.27734,13.70214l19.58984,-25.6137l-58.77881,-44.95588l-44.95556,58.779l25.33349,19.37585a34.003,34.003 0 0 1 31.5337,-21.28741z"/>
  <path id="svg_27" fill="#3f3d56" d="m707,555.86744l-706,0a1,1 0 0 1 0,-2l706,0a1,1 0 0 1 0,2z"/>
  <path id="svg_28" fill="#4a6cf7" d="m377.68737,388.93677l-71.86207,0a10.0113,10.0113 0 0 1 -10,-10l0,-4.97754a10.0113,10.0113 0 0 1 10,-10l71.86207,0a10.0113,10.0113 0 0 1 10,10l0,4.97754a10.0113,10.0113 0 0 1 -10,10z"/>
  <path id="svg_29" fill="#3f3d56" d="m385.25939,379.34107l-71.86231,0a10.512,10.512 0 0 1 -10.5,-10.5l0,-4.97754a10.512,10.512 0 0 1 10.5,-10.5l71.86231,0a10.512,10.512 0 0 1 10.5,10.5l0,4.97754a10.512,10.512 0 0 1 -10.5,10.5zm-71.86231,-23.97754a8.50951,8.50951 0 0 0 -8.5,8.5l0,4.97754a8.50951,8.50951 0 0 0 8.5,8.5l71.86231,0a8.50951,8.50951 0 0 0 8.5,-8.5l0,-4.97754a8.50951,8.50951 0 0 0 -8.5,-8.5l-71.86231,0z"/>
  <path id="svg_38" d="m234,253.06628" opacity="NaN" stroke="#000" fill="#fff"/>
  <path id="svg_39" fill="#f0f0f0" d="m112.35036,158.26346l33.54892,25.65917l-25.65917,33.54892l-33.54892,-25.65917l25.65917,-33.54892z"/>
  <path id="svg_40" d="m47,151.06628" opacity="NaN" stroke="#000" fill="#fff"/>
  <path id="svg_41" fill="#f0f0f0" d="m155.29528,402.86744a33.94883,33.94883 0 0 1 27.27734,13.70214l19.58984,-25.6137l-58.77881,-44.95588l-44.95556,58.779l25.33349,19.37585a34.003,34.003 0 0 1 31.5337,-21.28741z"/>
 </g>
</svg>